<mxfile host="65bd71144e">
    <diagram id="fI7HgOrZol5ZT_3_qYTL" name="流程图">
        <mxGraphModel dx="810" dy="365" grid="1" gridSize="10" guides="1" tooltips="1" connect="1" arrows="1" fold="1" page="1" pageScale="1" pageWidth="827" pageHeight="1169" math="0" shadow="0">
            <root>
                <mxCell id="0"/>
                <mxCell id="1" parent="0"/>
                <mxCell id="2" value="&lt;font style=&quot;font-size: 23px;&quot;&gt;开始&lt;/font&gt;" style="strokeWidth=2;html=1;shape=mxgraph.flowchart.start_1;whiteSpace=wrap;" parent="1" vertex="1">
                    <mxGeometry x="369" y="20" width="100" height="60" as="geometry"/>
                </mxCell>
                <mxCell id="3" value="" style="endArrow=classic;html=1;fontSize=23;strokeWidth=2;" parent="1" edge="1">
                    <mxGeometry width="50" height="50" relative="1" as="geometry">
                        <mxPoint x="418" y="80" as="sourcePoint"/>
                        <mxPoint x="418" y="140" as="targetPoint"/>
                    </mxGeometry>
                </mxCell>
                <mxCell id="4" value="收集数据" style="rounded=1;whiteSpace=wrap;html=1;fontSize=23;" parent="1" vertex="1">
                    <mxGeometry x="342" y="140" width="155" height="60" as="geometry"/>
                </mxCell>
                <mxCell id="5" value="" style="endArrow=classic;html=1;fontSize=23;strokeWidth=2;" parent="1" edge="1">
                    <mxGeometry width="50" height="50" relative="1" as="geometry">
                        <mxPoint x="418" y="200" as="sourcePoint"/>
                        <mxPoint x="418" y="260" as="targetPoint"/>
                    </mxGeometry>
                </mxCell>
                <mxCell id="6" value="将数据输入模型" style="rounded=1;whiteSpace=wrap;html=1;fontSize=23;" parent="1" vertex="1">
                    <mxGeometry x="320.5" y="390" width="198" height="60" as="geometry"/>
                </mxCell>
                <mxCell id="14" value="数据预处理" style="rounded=1;whiteSpace=wrap;html=1;fontSize=23;" parent="1" vertex="1">
                    <mxGeometry x="342" y="260" width="155" height="60" as="geometry"/>
                </mxCell>
                <mxCell id="31" value="&lt;font style=&quot;font-size: 20px;&quot;&gt;保存模型&lt;/font&gt;" style="rounded=1;whiteSpace=wrap;html=1;fontSize=23;" parent="1" vertex="1">
                    <mxGeometry x="340.75" y="760" width="155" height="60" as="geometry"/>
                </mxCell>
                <mxCell id="34" value="" style="endArrow=classic;html=1;strokeWidth=2;" parent="1" edge="1">
                    <mxGeometry width="50" height="50" relative="1" as="geometry">
                        <mxPoint x="419" y="320" as="sourcePoint"/>
                        <mxPoint x="419" y="390" as="targetPoint"/>
                    </mxGeometry>
                </mxCell>
                <mxCell id="35" value="模型训练" style="rounded=1;whiteSpace=wrap;html=1;fontSize=23;" parent="1" vertex="1">
                    <mxGeometry x="320.5" y="520" width="198" height="60" as="geometry"/>
                </mxCell>
                <mxCell id="36" value="" style="endArrow=classic;html=1;strokeWidth=2;" parent="1" edge="1">
                    <mxGeometry width="50" height="50" relative="1" as="geometry">
                        <mxPoint x="419" y="450" as="sourcePoint"/>
                        <mxPoint x="419" y="520" as="targetPoint"/>
                    </mxGeometry>
                </mxCell>
                <mxCell id="37" value="模型评估" style="rounded=1;whiteSpace=wrap;html=1;fontSize=23;" parent="1" vertex="1">
                    <mxGeometry x="319.25" y="650" width="198" height="60" as="geometry"/>
                </mxCell>
                <mxCell id="38" value="" style="endArrow=classic;html=1;strokeWidth=2;" parent="1" edge="1">
                    <mxGeometry width="50" height="50" relative="1" as="geometry">
                        <mxPoint x="417.75" y="580" as="sourcePoint"/>
                        <mxPoint x="417.75" y="650" as="targetPoint"/>
                    </mxGeometry>
                </mxCell>
                <mxCell id="39" value="" style="endArrow=classic;html=1;strokeWidth=2;" parent="1" edge="1">
                    <mxGeometry width="50" height="50" relative="1" as="geometry">
                        <mxPoint x="417.75" y="710" as="sourcePoint"/>
                        <mxPoint x="418" y="760" as="targetPoint"/>
                    </mxGeometry>
                </mxCell>
            </root>
        </mxGraphModel>
    </diagram>
    <diagram id="-SR0YYWOJZIszgpITFqL" name="图数据结构">
        <mxGraphModel dx="810" dy="365" grid="1" gridSize="10" guides="1" tooltips="1" connect="1" arrows="1" fold="1" page="1" pageScale="1" pageWidth="827" pageHeight="1169" math="0" shadow="0">
            <root>
                <mxCell id="0"/>
                <mxCell id="1" parent="0"/>
                <mxCell id="qhdNuj4X09yygYxLNTQF-1" value="" style="ellipse;whiteSpace=wrap;html=1;aspect=fixed;shadow=0;" vertex="1" parent="1">
                    <mxGeometry x="420" y="70" width="40" height="40" as="geometry"/>
                </mxCell>
                <mxCell id="qhdNuj4X09yygYxLNTQF-2" value="" style="ellipse;whiteSpace=wrap;html=1;aspect=fixed;shadow=0;" vertex="1" parent="1">
                    <mxGeometry x="450" y="270" width="40" height="40" as="geometry"/>
                </mxCell>
                <mxCell id="qhdNuj4X09yygYxLNTQF-3" value="" style="ellipse;whiteSpace=wrap;html=1;aspect=fixed;shadow=0;" vertex="1" parent="1">
                    <mxGeometry x="340" y="230" width="40" height="40" as="geometry"/>
                </mxCell>
                <mxCell id="qhdNuj4X09yygYxLNTQF-4" value="" style="ellipse;whiteSpace=wrap;html=1;aspect=fixed;shadow=0;" vertex="1" parent="1">
                    <mxGeometry x="520" y="170" width="40" height="40" as="geometry"/>
                </mxCell>
                <mxCell id="qhdNuj4X09yygYxLNTQF-5" value="" style="ellipse;whiteSpace=wrap;html=1;aspect=fixed;shadow=0;" vertex="1" parent="1">
                    <mxGeometry x="310" y="130" width="40" height="40" as="geometry"/>
                </mxCell>
                <mxCell id="qhdNuj4X09yygYxLNTQF-6" value="" style="endArrow=none;html=1;entryX=0;entryY=1;entryDx=0;entryDy=0;exitX=1;exitY=0;exitDx=0;exitDy=0;" edge="1" parent="1" source="qhdNuj4X09yygYxLNTQF-5" target="qhdNuj4X09yygYxLNTQF-1">
                    <mxGeometry width="50" height="50" relative="1" as="geometry">
                        <mxPoint x="350" y="140" as="sourcePoint"/>
                        <mxPoint x="400" y="90" as="targetPoint"/>
                    </mxGeometry>
                </mxCell>
                <mxCell id="qhdNuj4X09yygYxLNTQF-7" value="" style="endArrow=none;html=1;entryX=1;entryY=1;entryDx=0;entryDy=0;exitX=0;exitY=0;exitDx=0;exitDy=0;" edge="1" parent="1" source="qhdNuj4X09yygYxLNTQF-4" target="qhdNuj4X09yygYxLNTQF-1">
                    <mxGeometry width="50" height="50" relative="1" as="geometry">
                        <mxPoint x="540" y="120" as="sourcePoint"/>
                        <mxPoint x="590" y="70" as="targetPoint"/>
                    </mxGeometry>
                </mxCell>
                <mxCell id="qhdNuj4X09yygYxLNTQF-8" value="" style="endArrow=none;html=1;entryX=0;entryY=0.5;entryDx=0;entryDy=0;" edge="1" parent="1" target="qhdNuj4X09yygYxLNTQF-4">
                    <mxGeometry width="50" height="50" relative="1" as="geometry">
                        <mxPoint x="350" y="150" as="sourcePoint"/>
                        <mxPoint x="260" y="180" as="targetPoint"/>
                    </mxGeometry>
                </mxCell>
                <mxCell id="qhdNuj4X09yygYxLNTQF-9" value="" style="endArrow=none;html=1;entryX=0.5;entryY=1;entryDx=0;entryDy=0;exitX=0.5;exitY=0;exitDx=0;exitDy=0;" edge="1" parent="1" source="qhdNuj4X09yygYxLNTQF-3" target="qhdNuj4X09yygYxLNTQF-1">
                    <mxGeometry width="50" height="50" relative="1" as="geometry">
                        <mxPoint x="170" y="240" as="sourcePoint"/>
                        <mxPoint x="220" y="190" as="targetPoint"/>
                    </mxGeometry>
                </mxCell>
                <mxCell id="qhdNuj4X09yygYxLNTQF-10" value="" style="endArrow=none;html=1;exitX=0.5;exitY=0;exitDx=0;exitDy=0;" edge="1" parent="1" source="qhdNuj4X09yygYxLNTQF-2" target="qhdNuj4X09yygYxLNTQF-1">
                    <mxGeometry width="50" height="50" relative="1" as="geometry">
                        <mxPoint x="200" y="330" as="sourcePoint"/>
                        <mxPoint x="450" y="110" as="targetPoint"/>
                    </mxGeometry>
                </mxCell>
                <mxCell id="qhdNuj4X09yygYxLNTQF-11" value="" style="endArrow=none;html=1;entryX=0;entryY=0.5;entryDx=0;entryDy=0;exitX=1;exitY=0.5;exitDx=0;exitDy=0;" edge="1" parent="1" source="qhdNuj4X09yygYxLNTQF-3" target="qhdNuj4X09yygYxLNTQF-2">
                    <mxGeometry width="50" height="50" relative="1" as="geometry">
                        <mxPoint x="130" y="300" as="sourcePoint"/>
                        <mxPoint x="180" y="250" as="targetPoint"/>
                    </mxGeometry>
                </mxCell>
            </root>
        </mxGraphModel>
    </diagram>
    <diagram id="K-nLKgzkGRC8mB-8HOaa" name="图神经网络的传播">
        <mxGraphModel dx="810" dy="607" grid="1" gridSize="10" guides="1" tooltips="1" connect="1" arrows="1" fold="1" page="1" pageScale="1" pageWidth="827" pageHeight="1169" math="0" shadow="0">
            <root>
                <mxCell id="0"/>
                <mxCell id="1" parent="0"/>
                <mxCell id="D-poR6dwxkSJpQHuhxBE-12" value="" style="whiteSpace=wrap;html=1;aspect=fixed;shadow=0;dashed=1;" vertex="1" parent="1">
                    <mxGeometry x="110" y="50" width="280" height="280" as="geometry"/>
                </mxCell>
                <mxCell id="D-poR6dwxkSJpQHuhxBE-1" value="" style="ellipse;whiteSpace=wrap;html=1;aspect=fixed;shadow=0;" vertex="1" parent="1">
                    <mxGeometry x="230" y="70" width="40" height="40" as="geometry"/>
                </mxCell>
                <mxCell id="D-poR6dwxkSJpQHuhxBE-2" value="" style="ellipse;whiteSpace=wrap;html=1;aspect=fixed;shadow=0;" vertex="1" parent="1">
                    <mxGeometry x="260" y="270" width="40" height="40" as="geometry"/>
                </mxCell>
                <mxCell id="D-poR6dwxkSJpQHuhxBE-3" value="" style="ellipse;whiteSpace=wrap;html=1;aspect=fixed;shadow=0;" vertex="1" parent="1">
                    <mxGeometry x="150" y="230" width="40" height="40" as="geometry"/>
                </mxCell>
                <mxCell id="D-poR6dwxkSJpQHuhxBE-4" value="" style="ellipse;whiteSpace=wrap;html=1;aspect=fixed;shadow=0;" vertex="1" parent="1">
                    <mxGeometry x="330" y="170" width="40" height="40" as="geometry"/>
                </mxCell>
                <mxCell id="D-poR6dwxkSJpQHuhxBE-5" value="" style="ellipse;whiteSpace=wrap;html=1;aspect=fixed;shadow=0;" vertex="1" parent="1">
                    <mxGeometry x="120" y="130" width="40" height="40" as="geometry"/>
                </mxCell>
                <mxCell id="D-poR6dwxkSJpQHuhxBE-6" value="" style="endArrow=none;html=1;entryX=0;entryY=1;entryDx=0;entryDy=0;exitX=1;exitY=0;exitDx=0;exitDy=0;" edge="1" parent="1" source="D-poR6dwxkSJpQHuhxBE-5" target="D-poR6dwxkSJpQHuhxBE-1">
                    <mxGeometry width="50" height="50" relative="1" as="geometry">
                        <mxPoint x="160" y="140" as="sourcePoint"/>
                        <mxPoint x="210" y="90" as="targetPoint"/>
                    </mxGeometry>
                </mxCell>
                <mxCell id="D-poR6dwxkSJpQHuhxBE-7" value="" style="endArrow=none;html=1;entryX=1;entryY=1;entryDx=0;entryDy=0;exitX=0;exitY=0;exitDx=0;exitDy=0;" edge="1" parent="1" source="D-poR6dwxkSJpQHuhxBE-4" target="D-poR6dwxkSJpQHuhxBE-1">
                    <mxGeometry width="50" height="50" relative="1" as="geometry">
                        <mxPoint x="350" y="120" as="sourcePoint"/>
                        <mxPoint x="400" y="70" as="targetPoint"/>
                    </mxGeometry>
                </mxCell>
                <mxCell id="D-poR6dwxkSJpQHuhxBE-8" value="" style="endArrow=none;html=1;entryX=0;entryY=0.5;entryDx=0;entryDy=0;" edge="1" parent="1" target="D-poR6dwxkSJpQHuhxBE-4">
                    <mxGeometry width="50" height="50" relative="1" as="geometry">
                        <mxPoint x="160" y="150" as="sourcePoint"/>
                        <mxPoint x="70" y="180" as="targetPoint"/>
                    </mxGeometry>
                </mxCell>
                <mxCell id="D-poR6dwxkSJpQHuhxBE-9" value="" style="endArrow=none;html=1;entryX=0.5;entryY=1;entryDx=0;entryDy=0;exitX=0.5;exitY=0;exitDx=0;exitDy=0;" edge="1" parent="1" source="D-poR6dwxkSJpQHuhxBE-3" target="D-poR6dwxkSJpQHuhxBE-1">
                    <mxGeometry width="50" height="50" relative="1" as="geometry">
                        <mxPoint x="-20" y="240" as="sourcePoint"/>
                        <mxPoint x="30" y="190" as="targetPoint"/>
                    </mxGeometry>
                </mxCell>
                <mxCell id="D-poR6dwxkSJpQHuhxBE-10" value="" style="endArrow=none;html=1;exitX=0.5;exitY=0;exitDx=0;exitDy=0;" edge="1" parent="1" source="D-poR6dwxkSJpQHuhxBE-2" target="D-poR6dwxkSJpQHuhxBE-1">
                    <mxGeometry width="50" height="50" relative="1" as="geometry">
                        <mxPoint x="10" y="330" as="sourcePoint"/>
                        <mxPoint x="260" y="110" as="targetPoint"/>
                    </mxGeometry>
                </mxCell>
                <mxCell id="D-poR6dwxkSJpQHuhxBE-11" value="" style="endArrow=none;html=1;entryX=0;entryY=0.5;entryDx=0;entryDy=0;exitX=1;exitY=0.5;exitDx=0;exitDy=0;" edge="1" parent="1" source="D-poR6dwxkSJpQHuhxBE-3" target="D-poR6dwxkSJpQHuhxBE-2">
                    <mxGeometry width="50" height="50" relative="1" as="geometry">
                        <mxPoint x="-60" y="300" as="sourcePoint"/>
                        <mxPoint x="-10" y="250" as="targetPoint"/>
                    </mxGeometry>
                </mxCell>
                <mxCell id="D-poR6dwxkSJpQHuhxBE-13" value="" style="whiteSpace=wrap;html=1;aspect=fixed;shadow=0;dashed=1;" vertex="1" parent="1">
                    <mxGeometry x="460" y="40" width="280" height="280" as="geometry"/>
                </mxCell>
                <mxCell id="D-poR6dwxkSJpQHuhxBE-14" value="" style="ellipse;whiteSpace=wrap;html=1;aspect=fixed;shadow=0;" vertex="1" parent="1">
                    <mxGeometry x="580" y="60" width="40" height="40" as="geometry"/>
                </mxCell>
                <mxCell id="D-poR6dwxkSJpQHuhxBE-15" value="" style="ellipse;whiteSpace=wrap;html=1;aspect=fixed;shadow=0;" vertex="1" parent="1">
                    <mxGeometry x="610" y="260" width="40" height="40" as="geometry"/>
                </mxCell>
                <mxCell id="D-poR6dwxkSJpQHuhxBE-16" value="" style="ellipse;whiteSpace=wrap;html=1;aspect=fixed;shadow=0;" vertex="1" parent="1">
                    <mxGeometry x="500" y="220" width="40" height="40" as="geometry"/>
                </mxCell>
                <mxCell id="D-poR6dwxkSJpQHuhxBE-17" value="" style="ellipse;whiteSpace=wrap;html=1;aspect=fixed;shadow=0;" vertex="1" parent="1">
                    <mxGeometry x="680" y="160" width="40" height="40" as="geometry"/>
                </mxCell>
                <mxCell id="D-poR6dwxkSJpQHuhxBE-18" value="" style="ellipse;whiteSpace=wrap;html=1;aspect=fixed;shadow=0;" vertex="1" parent="1">
                    <mxGeometry x="470" y="120" width="40" height="40" as="geometry"/>
                </mxCell>
                <mxCell id="D-poR6dwxkSJpQHuhxBE-19" value="" style="endArrow=none;html=1;entryX=0;entryY=1;entryDx=0;entryDy=0;exitX=1;exitY=0;exitDx=0;exitDy=0;" edge="1" parent="1" source="D-poR6dwxkSJpQHuhxBE-18" target="D-poR6dwxkSJpQHuhxBE-14">
                    <mxGeometry width="50" height="50" relative="1" as="geometry">
                        <mxPoint x="510" y="130" as="sourcePoint"/>
                        <mxPoint x="560" y="80" as="targetPoint"/>
                    </mxGeometry>
                </mxCell>
                <mxCell id="D-poR6dwxkSJpQHuhxBE-20" value="" style="endArrow=none;html=1;entryX=1;entryY=1;entryDx=0;entryDy=0;exitX=0;exitY=0;exitDx=0;exitDy=0;" edge="1" parent="1" source="D-poR6dwxkSJpQHuhxBE-17" target="D-poR6dwxkSJpQHuhxBE-14">
                    <mxGeometry width="50" height="50" relative="1" as="geometry">
                        <mxPoint x="700" y="110" as="sourcePoint"/>
                        <mxPoint x="750" y="60" as="targetPoint"/>
                    </mxGeometry>
                </mxCell>
                <mxCell id="D-poR6dwxkSJpQHuhxBE-21" value="" style="endArrow=none;html=1;entryX=0;entryY=0.5;entryDx=0;entryDy=0;" edge="1" parent="1" target="D-poR6dwxkSJpQHuhxBE-17">
                    <mxGeometry width="50" height="50" relative="1" as="geometry">
                        <mxPoint x="510" y="140" as="sourcePoint"/>
                        <mxPoint x="420" y="170" as="targetPoint"/>
                    </mxGeometry>
                </mxCell>
                <mxCell id="D-poR6dwxkSJpQHuhxBE-22" value="" style="endArrow=none;html=1;entryX=0.5;entryY=1;entryDx=0;entryDy=0;exitX=0.5;exitY=0;exitDx=0;exitDy=0;" edge="1" parent="1" source="D-poR6dwxkSJpQHuhxBE-16" target="D-poR6dwxkSJpQHuhxBE-14">
                    <mxGeometry width="50" height="50" relative="1" as="geometry">
                        <mxPoint x="330" y="230" as="sourcePoint"/>
                        <mxPoint x="380" y="180" as="targetPoint"/>
                    </mxGeometry>
                </mxCell>
                <mxCell id="D-poR6dwxkSJpQHuhxBE-23" value="" style="endArrow=none;html=1;exitX=0.5;exitY=0;exitDx=0;exitDy=0;" edge="1" parent="1" source="D-poR6dwxkSJpQHuhxBE-15" target="D-poR6dwxkSJpQHuhxBE-14">
                    <mxGeometry width="50" height="50" relative="1" as="geometry">
                        <mxPoint x="360" y="320" as="sourcePoint"/>
                        <mxPoint x="610" y="100" as="targetPoint"/>
                    </mxGeometry>
                </mxCell>
                <mxCell id="D-poR6dwxkSJpQHuhxBE-24" value="" style="endArrow=none;html=1;entryX=0;entryY=0.5;entryDx=0;entryDy=0;exitX=1;exitY=0.5;exitDx=0;exitDy=0;" edge="1" parent="1" source="D-poR6dwxkSJpQHuhxBE-16" target="D-poR6dwxkSJpQHuhxBE-15">
                    <mxGeometry width="50" height="50" relative="1" as="geometry">
                        <mxPoint x="290" y="290" as="sourcePoint"/>
                        <mxPoint x="340" y="240" as="targetPoint"/>
                    </mxGeometry>
                </mxCell>
                <mxCell id="D-poR6dwxkSJpQHuhxBE-25" value="" style="endArrow=none;html=1;dashed=1;entryX=0;entryY=0.5;entryDx=0;entryDy=0;" edge="1" parent="1" target="D-poR6dwxkSJpQHuhxBE-14">
                    <mxGeometry width="50" height="50" relative="1" as="geometry">
                        <mxPoint x="270" y="89.5" as="sourcePoint"/>
                        <mxPoint x="440" y="89.5" as="targetPoint"/>
                    </mxGeometry>
                </mxCell>
                <mxCell id="D-poR6dwxkSJpQHuhxBE-26" value="" style="endArrow=none;html=1;dashed=1;entryX=0;entryY=0.5;entryDx=0;entryDy=0;" edge="1" parent="1" target="D-poR6dwxkSJpQHuhxBE-18">
                    <mxGeometry width="50" height="50" relative="1" as="geometry">
                        <mxPoint x="270" y="90" as="sourcePoint"/>
                        <mxPoint x="580" y="90.5" as="targetPoint"/>
                    </mxGeometry>
                </mxCell>
                <mxCell id="D-poR6dwxkSJpQHuhxBE-27" value="" style="endArrow=none;html=1;dashed=1;entryX=0;entryY=0.5;entryDx=0;entryDy=0;" edge="1" parent="1" target="D-poR6dwxkSJpQHuhxBE-17">
                    <mxGeometry width="50" height="50" relative="1" as="geometry">
                        <mxPoint x="280" y="90" as="sourcePoint"/>
                        <mxPoint x="530" y="460" as="targetPoint"/>
                    </mxGeometry>
                </mxCell>
                <mxCell id="D-poR6dwxkSJpQHuhxBE-28" value="" style="endArrow=none;html=1;dashed=1;entryX=0;entryY=0.5;entryDx=0;entryDy=0;" edge="1" parent="1" target="D-poR6dwxkSJpQHuhxBE-16">
                    <mxGeometry width="50" height="50" relative="1" as="geometry">
                        <mxPoint x="270" y="90" as="sourcePoint"/>
                        <mxPoint x="540" y="460" as="targetPoint"/>
                    </mxGeometry>
                </mxCell>
                <mxCell id="D-poR6dwxkSJpQHuhxBE-29" value="" style="endArrow=none;html=1;dashed=1;entryX=0;entryY=0;entryDx=0;entryDy=0;exitX=1;exitY=0.5;exitDx=0;exitDy=0;" edge="1" parent="1" source="D-poR6dwxkSJpQHuhxBE-1" target="D-poR6dwxkSJpQHuhxBE-15">
                    <mxGeometry width="50" height="50" relative="1" as="geometry">
                        <mxPoint x="280" y="100" as="sourcePoint"/>
                        <mxPoint x="510" y="250" as="targetPoint"/>
                    </mxGeometry>
                </mxCell>
            </root>
        </mxGraphModel>
    </diagram>
</mxfile>